<mxfile host="app.diagrams.net" modified="2024-03-27T14:51:26.916Z" agent="Mozilla/5.0 (Windows NT 10.0; Win64; x64) AppleWebKit/537.36 (KHTML, like Gecko) Chrome/123.0.0.0 Safari/537.36" etag="5ZvgGkuePskpiTYlsuof" version="24.2.0" type="device">
  <diagram name="Page-1" id="c2R_HJTXx0qI99lUliow">
    <mxGraphModel dx="1098" dy="783" grid="1" gridSize="10" guides="1" tooltips="1" connect="1" arrows="1" fold="1" page="1" pageScale="1" pageWidth="850" pageHeight="1100" math="0" shadow="0">
      <root>
        <mxCell id="0" />
        <mxCell id="1" parent="0" />
        <mxCell id="tvyFfB7hzxl0HRXoNPSE-1" value="MongoDB" style="shape=cylinder;whiteSpace=wrap;html=1;boundedLbl=1;backgroundOutline=1;" vertex="1" parent="1">
          <mxGeometry x="210" y="360" width="60" height="80" as="geometry" />
        </mxCell>
        <mxCell id="tvyFfB7hzxl0HRXoNPSE-2" value="Cloudinary" style="shape=cylinder;whiteSpace=wrap;html=1;boundedLbl=1;backgroundOutline=1;" vertex="1" parent="1">
          <mxGeometry x="680" y="360" width="75" height="80" as="geometry" />
        </mxCell>
        <mxCell id="tvyFfB7hzxl0HRXoNPSE-3" value="User" style="html=1;dashed=0;whiteSpace=wrap;" vertex="1" parent="1">
          <mxGeometry x="190" y="160" width="100" height="50" as="geometry" />
        </mxCell>
      </root>
    </mxGraphModel>
  </diagram>
</mxfile>
